<svg xmlns="http://www.w3.org/2000/svg" width="50" height="50" fill="none" viewBox="0 0 50 50"><g fill-rule="evenodd" clip-path="url(#a)" clip-rule="evenodd"><path fill="#fff" stroke="#66B100" stroke-width="2" d="M11.29 9.948 12.373 5.9a1.936 1.936 0 0 1 2.367-1.367l4.049 1.085a1.89 1.89 0 0 0 1.866-.5l2.964-2.964a1.936 1.936 0 0 1 2.733 0l2.964 2.964a1.89 1.89 0 0 0 1.867.5l4.049-1.085A1.936 1.936 0 0 1 37.599 5.9l1.085 4.048a1.89 1.89 0 0 0 1.367 1.367l4.048 1.085a1.936 1.936 0 0 1 1.367 2.367l-1.085 4.048a1.89 1.89 0 0 0 .5 1.867l2.964 2.964c.753.752.753 1.98 0 2.733l-2.964 2.963a1.89 1.89 0 0 0-.5 1.867l1.085 4.049a1.936 1.936 0 0 1-1.367 2.367l-4.048 1.084a1.89 1.89 0 0 0-1.367 1.367L37.6 44.125a1.936 1.936 0 0 1-2.366 1.366l-4.05-1.085a1.89 1.89 0 0 0-1.866.5l-2.964 2.964a1.936 1.936 0 0 1-2.733 0l-2.963-2.963a1.89 1.89 0 0 0-1.867-.5L14.74 45.49a1.936 1.936 0 0 1-2.367-1.366l-1.085-4.049a1.89 1.89 0 0 0-1.366-1.367l-4.049-1.084a1.936 1.936 0 0 1-1.366-2.367l1.085-4.049a1.89 1.89 0 0 0-.5-1.867L2.128 26.38a1.936 1.936 0 0 1 0-2.733l2.963-2.964a1.89 1.89 0 0 0 .5-1.867l-1.084-4.048A1.936 1.936 0 0 1 5.874 12.4l4.049-1.085a1.89 1.89 0 0 0 1.366-1.367Z"/><path fill="#66B100" d="M18.385 39.97s1.018-1.363 1.329-2.727-.483-2.969-.604-4.298c0 0 0-.32-.25-.285s-1.192.415-1.52-.328c-.327-.742-1.432-.897-1.64-2.105-.207-1.209-1.207-5.92-3.59-6.128-2.381-.207-3.831-.095-4.522.12-.69.217-.914-.327-1.294-.448-.38-.12-.794-.259-.794-.871 0-.613.095-.958.776-1.398.682-.44.924-.613 1.045-.863s.518-.855.846-1.209c0 0-.363-.474-.182-.906.182-.431.596-.224.812-.475.215-.25.63-.88.63-.88s-1.968-.794-1.157-3.504c0 0 .078.734.458 1.32.38.588 1.06 1.33 1.734 1.433.673.104 1.303.165 1.588-.198.285-.362.216-.682-.147-1.372-.362-.69-.725-1.657-.086-2.848 0 0-.052.794 1.07 2.313s1.001 2.313-.052 2.986c0 0 .777-.466 1.45-.26.673.208 0 1.054-.328 1.209 0 0 1.485.276 2.486.276 1 0 4.522-.966 7.525-.103s6.818.518 7.992.518c1.173 0 2.313.026 3.098-.535s1.165-.898 2.08-.19c.914.707 1.277.034 1.82.276s1.96.811 1.735 4.833c-.224 4.021-.431 5.195-.086 6.507s1.19 1.467 1.45 2.606c.259 1.14-.363 1.709.259 2.693 0 0-.622-.432-1.07-1.502 0 0-.139 1.105.673 2.14 0 0-1.226-.12-1.916-1.726s.276-2.779.276-2.779-1.001-2.727-.794-5.644-.155-3.952-.155-3.952-1.053 3.486-.95 5.247c.104 1.76-.552 2.83-.069 4.056s-.241 2.692-.5 3.452c-.26.76-.656 4.47-.794 5.005s-2.658.104-2.658.104l-.673-.432s1.501-.983 1.915-3.262-.793-4.229-1.657-5.644c0 0-.517.345-1.346 1.243-.828.897-1.415 2.623-2.174 2.692-.76.07-.967-1.588-1.864-1.726s-2.797-.155-4.454-.932c-1.657-.776-2.14-.345-2.278.984-.138 1.33-.604 2.486-.57 3.159s.984 4.142.984 4.142l-2.943.553z"/></g><defs><clipPath id="a"><path fill="#fff" d="M0 0h50v50H0z"/></clipPath></defs></svg>