<svg xmlns="http://www.w3.org/2000/svg" width="100" height="100" fill="none" viewBox="0 0 100 100"><path fill="#fff" fill-rule="evenodd" stroke="#66B100" stroke-width="2" d="m22.579 19.897 2.17-8.098a3.873 3.873 0 0 1 4.733-2.733l8.097 2.17c1.371.368 2.73.003 3.734-1l5.927-5.928a3.873 3.873 0 0 1 5.467 0l5.927 5.928c1.004 1.003 2.363 1.368 3.734 1l8.097-2.17a3.87 3.87 0 0 1 4.733 2.733l2.17 8.098c.368 1.37 1.363 2.366 2.733 2.733l8.098 2.17a3.873 3.873 0 0 1 2.732 4.733l-2.169 8.097c-.367 1.371-.003 2.73 1 3.734l5.928 5.927a3.87 3.87 0 0 1 0 5.466l-5.928 5.928c-1.003 1.003-1.367 2.362-1 3.733l2.17 8.098a3.873 3.873 0 0 1-2.733 4.733L80.1 77.42c-1.37.367-2.366 1.362-2.733 2.733l-2.17 8.097a3.87 3.87 0 0 1-4.733 2.733l-8.097-2.17c-1.371-.367-2.73-.003-3.734 1.001l-5.927 5.928a3.87 3.87 0 0 1-5.467 0l-5.927-5.928c-1.004-1.004-2.363-1.368-3.734-1l-8.097 2.17a3.873 3.873 0 0 1-4.733-2.734l-2.17-8.097c-.368-1.37-1.362-2.366-2.733-2.733l-8.097-2.17a3.87 3.87 0 0 1-2.733-4.733l2.17-8.098c.367-1.37.002-2.73-1.001-3.733l-5.927-5.928a3.87 3.87 0 0 1 0-5.466l5.927-5.927c1.003-1.003 1.367-2.363 1-3.734l-2.17-8.097a3.87 3.87 0 0 1 2.733-4.734l8.098-2.17c1.37-.367 2.366-1.361 2.733-2.733Z" clip-rule="evenodd"/><path fill="#66B100" fill-rule="evenodd" d="M33.638 71.265a.77.77 0 0 0-.482 1.102.77.77 0 0 0 .482-1.102m9.43 1.838a1.995 1.995 0 0 0 1.978 2.404 1.995 1.995 0 0 0-1.979-2.404m-2.125.418a1.793 1.793 0 0 0 .719 2.703 1.79 1.79 0 0 0 .287-1.523 1.8 1.8 0 0 0-1.006-1.18m-2.192.138a1.543 1.543 0 0 0 .07 2.409 1.544 1.544 0 0 0-.07-2.41m-1.929-.456a1.193 1.193 0 0 0-.461 1.804 1.19 1.19 0 0 0 .461-1.804m-1.824-.479a.77.77 0 0 0-.298 1.165.77.77 0 0 0 .298-1.165m-3.47-2.748a1.06 1.06 0 0 1 .783 1.456 1.06 1.06 0 0 1-.782-1.456m.046 3.748a1.058 1.058 0 0 1 1.608-.38 1.06 1.06 0 0 1-1.609.38m1.211 2.679a1.64 1.64 0 0 1 2.217-1.28 1.64 1.64 0 0 1-.802 1.171 1.64 1.64 0 0 1-1.415.109m2.555 1.83a1.64 1.64 0 0 1 1.76-1.86 1.64 1.64 0 0 1-1.76 1.86m3.51 1.314a1.64 1.64 0 0 1 .032-1.419 1.64 1.64 0 0 1 1.124-.865 1.64 1.64 0 0 1-1.155 2.284m3.934 1.176a2.14 2.14 0 0 1-.476-1.791 2.14 2.14 0 0 1 1.098-1.495 2.143 2.143 0 0 1-.622 3.286m23.519-9.458a.77.77 0 0 1 .482 1.102.77.77 0 0 1-.482-1.102m-9.43 1.838a1.995 1.995 0 0 1-1.978 2.404 2 2 0 0 1 .414-1.676c.4-.486.98-.734 1.564-.728m2.125.418a1.792 1.792 0 0 1-.72 2.703 1.793 1.793 0 0 1 .72-2.703m2.192.138a1.543 1.543 0 0 1-.07 2.408 1.54 1.54 0 0 1-.542-1.221 1.54 1.54 0 0 1 .612-1.187m1.928-.456a1.194 1.194 0 0 1 .462 1.804 1.193 1.193 0 0 1-.462-1.803m1.824-.479a.77.77 0 0 1 .299 1.165.77.77 0 0 1-.299-1.165m3.47-2.748a1.06 1.06 0 0 0-.782 1.456 1.058 1.058 0 0 0 .782-1.456m-.045 3.747a1.06 1.06 0 0 0-1.608-.378 1.058 1.058 0 0 0 1.608.378m-1.211 2.68a1.64 1.64 0 0 0-2.218-1.28 1.64 1.64 0 0 0 2.217 1.28m-2.555 1.83a1.64 1.64 0 0 0-1.76-1.86 1.646 1.646 0 0 0 1.76 1.86m-3.511 1.314a1.64 1.64 0 0 0-1.155-2.284 1.64 1.64 0 0 0 1.155 2.284m-3.933 1.176a2.14 2.14 0 0 0 .476-1.791 2.14 2.14 0 0 0-1.099-1.495 2.14 2.14 0 0 0-.475 1.793 2.14 2.14 0 0 0 1.098 1.493M51.5 73.531q.234.233.478.45.545.466 1.145.873.77.503 1.61.861l.008.004a10.25 10.25 0 0 0 9.154-.555 10.2 10.2 0 0 0 3.588-3.47 10.623 10.623 0 0 1-14.742 4.054l-.009-.005a10.5 10.5 0 0 1-1.448-1.036 13 13 0 0 1-1.313-1.255q-.61.671-1.315 1.255l-.149.125q-.62.507-1.298.91l-.01.006a10.623 10.623 0 0 1-14.741-4.054 10.2 10.2 0 0 0 3.587 3.47 10.25 10.25 0 0 0 9.155.555l.008-.004a10.3 10.3 0 0 0 1.61-.861q.6-.406 1.144-.874.245-.216.478-.449.38-.357.728-.743l.005.002.125-.143a12.8 12.8 0 0 1-2.033-3.89h1.099l.071.191c.375.988.876 1.923 1.489 2.78l.047.066.045-.065a12.3 12.3 0 0 0 1.561-2.972h1.099a12.8 12.8 0 0 1-2.033 3.89l.125.143.005-.002q.347.386.727.743m.63 6.103a2.48 2.48 0 0 0 .926-1.935c0-.782-.361-1.48-.926-1.935a2.48 2.48 0 0 0 0 3.87m-4.32 0a2.48 2.48 0 0 1-.926-1.935c0-.782.362-1.48.927-1.935.565.455.926 1.153.926 1.935s-.361 1.48-.926 1.935" clip-rule="evenodd"/><path fill="#66B100" fill-rule="evenodd" d="M49.97 66.131c13.061 0 23.65.659 23.65 1.471s-10.589 1.471-23.65 1.471-23.649-.658-23.649-1.47c0-.813 10.588-1.472 23.65-1.472" clip-rule="evenodd"/><path fill="#66B100" fill-rule="evenodd" d="M42.23 67.823s1.428-1.91 1.863-3.821-.677-4.16-.846-6.023c0 0 0-.447-.351-.399-.35.048-1.669.58-2.129-.46s-2.007-1.257-2.297-2.95-1.693-8.297-5.031-8.587-5.37-.133-6.337.17c-.968.302-1.282-.46-1.814-.63s-1.113-.362-1.113-1.22c0-.86.133-1.343 1.088-1.96s1.294-.858 1.464-1.21c.17-.35.725-1.197 1.185-1.692 0 0-.508-.665-.254-1.27s.834-.314 1.137-.665c.302-.35.883-1.234.883-1.234s-2.758-1.112-1.62-4.91c0 0 .108 1.028.64 1.85s1.488 1.863 2.43 2.008c.944.145 1.827.23 2.226-.278s.302-.955-.206-1.923c-.508-.967-1.015-2.322-.12-3.99 0 0-.073 1.112 1.5 3.24 1.571 2.129 1.402 3.241-.074 4.185 0 0 1.089-.653 2.032-.363s0 1.475-.46 1.693c0 0 2.08.387 3.483.387s6.337-1.354 10.546-.145 9.554.726 11.198.726 3.242.036 4.342-.75 1.633-1.258 2.915-.266c1.281.992 1.79.048 2.551.387s2.745 1.136 2.43 6.772-.604 7.28-.12 9.118 1.669 2.057 2.032 3.653c.362 1.596-.508 2.394.362 3.773 0 0-.87-.605-1.5-2.104 0 0-.193 1.548.944 2.999 0 0-1.717-.17-2.685-2.419-.967-2.25.387-3.894.387-3.894s-1.403-3.822-1.112-7.91c.29-4.087-.218-5.538-.218-5.538s-1.475 4.886-1.33 7.353-.774 3.967-.097 5.684-.338 3.773-.701 4.837-.92 6.264-1.113 7.014-3.725.145-3.725.145l-.943-.604s2.104-1.379 2.685-4.572c.58-3.192-1.113-5.925-2.322-7.909 0 0-.726.484-1.887 1.742-1.16 1.257-1.983 3.676-3.047 3.773s-1.355-2.225-2.612-2.419-3.919-.218-6.24-1.306-3-.484-3.193 1.379-.847 3.483-.798 4.426 1.378 5.805 1.378 5.805l-4.124.774z" clip-rule="evenodd"/><path fill="#66B100" fill-rule="evenodd" d="M33.093 62.003s1.739.842 1.452 4.641c-.22 2.901.586 1.526.979.715.185.247.364.365.469.125.408.813 1.125 1.917.917-.84-.287-3.799 1.452-4.641 1.452-4.641-1.288.385-1.988 2.147-2.336 3.45-.139-3.456 1.475-4.239 1.475-4.239-1.276.382-1.974 2.117-2.326 3.417-.398-1.13-1.052-2.32-2.082-2.628" clip-rule="evenodd"/><path fill="#66B100" fill-rule="evenodd" d="M36.264 62.18s1.739.843 1.452 4.642c-.219 2.901.586 1.526.979.715.185.247.364.365.469.124.409.814 1.125 1.918.917-.839-.287-3.8 1.452-4.642 1.452-4.642-1.288.386-1.987 2.148-2.335 3.451-.14-3.456 1.475-4.239 1.475-4.239-1.277.382-1.975 2.117-2.327 3.417-.398-1.131-1.051-2.32-2.082-2.628m11.64 1.704s.775.376.647 2.07c-.097 1.295.262.681.437.32.083.11.163.162.21.055.182.363.501.855.408-.375-.128-1.694.648-2.07.648-2.07-.574.172-.886.958-1.042 1.539-.062-1.542.658-1.89.658-1.89-.57.17-.88.944-1.037 1.523-.178-.504-.47-1.035-.93-1.172" clip-rule="evenodd"/><path fill="#66B100" fill-rule="evenodd" d="M48.886 64.036s.776.376.647 2.07c-.097 1.295.262.682.437.32.083.11.163.162.21.055.182.363.501.855.409-.374-.129-1.695.647-2.07.647-2.07-.574.171-.886.957-1.042 1.538-.061-1.541.658-1.89.658-1.89-.569.17-.88.944-1.037 1.524-.178-.505-.47-1.035-.929-1.173m11.46.099s.776.376.648 2.07c-.098 1.294.261.681.437.32.082.11.162.162.209.055.182.363.502.855.41-.374-.129-1.695.646-2.071.646-2.071-.574.172-.886.958-1.041 1.539-.062-1.542.658-1.89.658-1.89-.57.17-.881.944-1.038 1.523-.178-.504-.47-1.035-.929-1.172" clip-rule="evenodd"/><path fill="#66B100" fill-rule="evenodd" d="M61.329 64.286s.775.376.647 2.07c-.098 1.295.262.681.437.32.082.11.162.162.21.055.181.363.5.855.408-.374-.128-1.695.648-2.07.648-2.07-.575.17-.887.957-1.042 1.538-.062-1.541.658-1.89.658-1.89-.57.17-.88.944-1.038 1.523-.177-.504-.469-1.035-.928-1.172m7.989.176s.775.376.648 2.07c-.098 1.294.26.681.436.319.082.11.162.163.21.055.182.363.501.856.408-.374-.128-1.694.648-2.07.648-2.07-.574.171-.886.958-1.042 1.539-.062-1.542.658-1.891.658-1.891-.57.17-.88.944-1.037 1.524-.178-.504-.47-1.035-.93-1.172" clip-rule="evenodd"/><path fill="#66B100" fill-rule="evenodd" d="M70.3 64.613s.776.376.648 2.07c-.098 1.294.261.681.436.319.083.11.163.163.21.056.182.363.502.855.409-.375-.128-1.694.647-2.07.647-2.07-.574.172-.886.958-1.041 1.539-.062-1.542.658-1.89.658-1.89-.57.17-.881.944-1.038 1.523-.178-.504-.47-1.034-.929-1.172m-16.484-.83s.775.376.647 2.07c-.097 1.294.262.681.437.319.082.11.162.163.21.056.181.362.5.855.408-.375-.128-1.695.648-2.07.648-2.07-.575.172-.886.958-1.042 1.539-.062-1.542.658-1.891.658-1.891-.57.17-.88.945-1.037 1.524-.178-.504-.47-1.035-.93-1.172" clip-rule="evenodd"/><path fill="#66B100" fill-rule="evenodd" d="M54.658 63.019s1.056.51.882 2.817c-.133 1.762.355.927.594.434.112.15.221.222.285.076.248.494.683 1.164.556-.51-.174-2.306.881-2.817.881-2.817-.78.233-1.206 1.303-1.417 2.094-.084-2.098.895-2.573.895-2.573-.775.231-1.198 1.285-1.412 2.074-.242-.687-.639-1.409-1.264-1.596" clip-rule="evenodd"/></svg>